<?xml version="1.0" encoding="utf-8"?>
<!-- Generator: Adobe Illustrator 16.0.0, SVG Export Plug-In . SVG Version: 6.00 Build 0)  -->
<!DOCTYPE svg PUBLIC "-//W3C//DTD SVG 1.1//EN" "http://www.w3.org/Graphics/SVG/1.1/DTD/svg11.dtd">
<svg version="1.1" id="Layer_1" xmlns="http://www.w3.org/2000/svg" xmlns:xlink="http://www.w3.org/1999/xlink" x="0px" y="0px"
	 width="32px" height="32px" viewBox="0 0 32 32" enable-background="new 0 0 32 32" xml:space="preserve">
<path fill="#3498DB" stroke="#3498DB" stroke-width="0.5" stroke-miterlimit="10" d="M30.727,13.752l-2.674-8.022
	c-0.037-0.11-0.125-0.194-0.235-0.227L13.505,1.308c-0.096-0.029-0.203-0.014-0.287,0.04L2.574,8.007
	c-0.088,0.055-0.148,0.146-0.162,0.25l-1.154,8.284c-0.022,0.16,0.067,0.316,0.218,0.375l2.233,0.9l0,5.773
	c0,0.137,0.081,0.264,0.205,0.32l14.445,6.637h0.001c0.013,0.021,0.026,0.045,0.047,0.064c0.066,0.061,0.151,0.096,0.241,0.096
	c0.098,0,0.191-0.043,0.258-0.115l9.019-9.699c0.062-0.064,0.094-0.148,0.094-0.24v-3.838l2.627-2.705
	C30.738,14.014,30.769,13.877,30.727,13.752z M3.463,8.282l9.87-6.174v9.244L3.463,8.282z M16.838,23.104
	c0.098,0.039,0.211,0.033,0.303-0.02c0.093-0.051,0.157-0.141,0.177-0.246l0.94-5.219v12.104L4.415,23.361l0-5.262L16.838,23.104z
	 M18.248,13.696l-1.549,8.591L1.996,16.366l1.041-7.477l15.231,4.738C18.258,13.649,18.252,13.672,18.248,13.696z M26.816,5.945
	l-8.198,7.052l-4.579-1.424V2.2L26.816,5.945z M29.989,13.772l-8.104,8.349l-2.951-8.464l8.562-7.365L29.989,13.772z M18.964,15.888
	l2.443,7.004c0.04,0.115,0.139,0.203,0.257,0.227c0.116,0.027,0.247-0.01,0.33-0.096l5.319-5.482v2.973l-8.35,8.98V15.888z"/>
</svg>
