<?xml version="1.0" encoding="utf-8"?>
<!-- Generator: Adobe Illustrator 16.0.0, SVG Export Plug-In . SVG Version: 6.00 Build 0)  -->
<!DOCTYPE svg PUBLIC "-//W3C//DTD SVG 1.1//EN" "http://www.w3.org/Graphics/SVG/1.1/DTD/svg11.dtd">
<svg version="1.1" id="Layer_1" xmlns="http://www.w3.org/2000/svg" xmlns:xlink="http://www.w3.org/1999/xlink" x="0px" y="0px"
	 width="32px" height="32px" viewBox="0 0 32 32" enable-background="new 0 0 32 32" xml:space="preserve">
<g>
	<g>
		<path fill="#3498DB" d="M16.001,2.182C8.379,2.182,2.18,8.379,2.18,16c0,7.62,6.199,13.819,13.821,13.819
			c7.62,0,13.819-6.199,13.819-13.819C29.82,8.379,23.621,2.182,16.001,2.182z M16.001,28.828C8.927,28.828,3.174,23.074,3.174,16
			c0-7.072,5.753-12.826,12.828-12.826c7.073,0,12.827,5.753,12.827,12.826C28.828,23.074,23.074,28.828,16.001,28.828z"/>
	</g>
	<g>
		<path fill="#3498DB" d="M16,5.913c-0.273,0-0.495,0.222-0.495,0.496v9.095H7.38c-0.273,0-0.496,0.223-0.496,0.497
			s0.222,0.497,0.496,0.497H16c0.275,0,0.496-0.223,0.496-0.497V6.408C16.496,6.135,16.275,5.913,16,5.913z"/>
	</g>
</g>
</svg>
