<?xml version="1.0" encoding="utf-8"?>
<!-- Generator: Adobe Illustrator 16.0.0, SVG Export Plug-In . SVG Version: 6.00 Build 0)  -->
<!DOCTYPE svg PUBLIC "-//W3C//DTD SVG 1.1//EN" "http://www.w3.org/Graphics/SVG/1.1/DTD/svg11.dtd">
<svg version="1.1" id="Layer_1" xmlns="http://www.w3.org/2000/svg" xmlns:xlink="http://www.w3.org/1999/xlink" x="0px" y="0px"
	 width="32px" height="32px" viewBox="0 0 32 32" enable-background="new 0 0 32 32" xml:space="preserve">
<g>
	<path fill="#3498DB" d="M5.308,24.987h1.646c0.24,0,0.436-0.196,0.436-0.438v-4.389l-2.352,2.36l-0.167-0.171v2.199
		C4.872,24.791,5.067,24.987,5.308,24.987z"/>
	<path fill="#3498DB" d="M13.295,17.973l-1.847-1.855l-0.672,0.68v7.79c0,0.221,0.179,0.4,0.399,0.4h1.721
		c0.22,0,0.399-0.18,0.399-0.4V17.973z"/>
	<path fill="#3498DB" d="M16.618,19.173v5.414c0,0.221,0.18,0.4,0.399,0.4l1.782-0.002c0.221,0,0.399-0.179,0.399-0.398V16.62
		L16.618,19.173z"/>
	<path fill="#3498DB" d="M22.923,24.987h1.782c0.221,0,0.4-0.18,0.4-0.4V14.218l-1.762-1.752l-0.819,0.807v11.314
		C22.524,24.808,22.703,24.987,22.923,24.987z"/>
	<path fill="#3498DB" d="M14.332,12.715l-2.359-2.359c-0.143-0.143-0.333-0.222-0.535-0.222c-0.202,0-0.392,0.079-0.536,0.222
		L4.116,17.14c-0.154,0.154-0.243,0.367-0.243,0.585c0,0.22,0.086,0.428,0.243,0.586L4.5,18.697
		c0.282,0.279,0.782,0.282,1.069-0.003l4.622-4.63c0.666-0.664,1.82-0.663,2.484-0.001l2.119,2.119c0.409,0.409,1.141,0.409,1.55,0
		l7.007-7.007l1.436,1.436l0.137-0.055l0.055-3.768c0.003-0.141-0.05-0.273-0.148-0.373c-0.098-0.099-0.231-0.155-0.368-0.155
		h-3.831l0.001,0.001l-0.056,0.135l1.277,1.278l-5.038,5.039C16.156,13.374,14.992,13.375,14.332,12.715z"/>
	<path fill="#3498DB" d="M3.327,29.444h25.332c0.456,0,0.841-0.379,0.841-0.827V3.384c0-0.449-0.389-0.828-0.85-0.828
		S27.8,2.935,27.8,3.384v24.424H3.327c-0.456,0-0.827,0.367-0.827,0.818S2.871,29.444,3.327,29.444z"/>
</g>
</svg>
