<?xml version="1.0" encoding="utf-8"?>
<!-- Generator: Adobe Illustrator 16.0.0, SVG Export Plug-In . SVG Version: 6.00 Build 0)  -->
<!DOCTYPE svg PUBLIC "-//W3C//DTD SVG 1.1//EN" "http://www.w3.org/Graphics/SVG/1.1/DTD/svg11.dtd">
<svg version="1.1" id="Layer_1" xmlns="http://www.w3.org/2000/svg" xmlns:xlink="http://www.w3.org/1999/xlink" x="0px" y="0px"
	 width="32px" height="32px" viewBox="0 0 32 32" enable-background="new 0 0 32 32" xml:space="preserve">
<g>
	<g>
		<path fill="#3498DB" d="M26.503,4.566V2.399h-0.981v2.166h-3.532V2.399h-0.981v2.166h-3.942V2.399h-0.979v2.166h-4.091V2.399
			h-0.981v2.166H7.089V2.399H6.108v2.166H2.613v24.884h26.775V4.566H26.503z M28.496,28.56H3.504V10.99h24.992V28.56z
			 M28.496,10.101H3.504V5.456h2.604v2.257h0.98V5.456h3.925v2.257h0.98V5.456h4.091v2.257h0.98V5.456h3.942v2.257h0.981V5.456
			h3.531v2.257h0.982V5.456h1.993V10.101L28.496,10.101z"/>
	</g>
	<g>
		<polygon fill="#3498DB" points="22.93,16.2 22.275,15.471 15.028,21.97 10.762,17.642 10.064,18.33 14.985,23.324 		"/>
	</g>
</g>
</svg>
