<?xml version="1.0" encoding="utf-8"?>
<!-- Generator: Adobe Illustrator 16.0.0, SVG Export Plug-In . SVG Version: 6.00 Build 0)  -->
<!DOCTYPE svg PUBLIC "-//W3C//DTD SVG 1.1//EN" "http://www.w3.org/Graphics/SVG/1.1/DTD/svg11.dtd">
<svg version="1.1" id="Layer_1" xmlns="http://www.w3.org/2000/svg" xmlns:xlink="http://www.w3.org/1999/xlink" x="0px" y="0px"
	 width="32px" height="32px" viewBox="0 0 32 32" enable-background="new 0 0 32 32" xml:space="preserve">
<g>
	<path fill="#3498DB" d="M16,3.139c-4.058,0-7.359,3.301-7.359,7.359c0,4.056,3.301,7.356,7.359,7.356
		c4.057,0,7.356-3.3,7.356-7.356C23.356,6.44,20.057,3.139,16,3.139z M16,15.713c-2.876,0-5.216-2.339-5.216-5.215
		c0-2.876,2.34-5.216,5.216-5.216c2.877,0,5.217,2.34,5.217,5.216C21.217,13.374,18.877,15.713,16,15.713z"/>
	<path fill="#3498DB" d="M6.465,25.903c0.001,0.015-0.012,0.084-0.025,0.153c-0.011,0.054-0.025,0.106-0.025,0.16
		c0,1.08,3.414,2.643,9.586,2.643c6.293,0,9.585-1.721,9.585-2.643c0-0.102-0.013-0.205-0.024-0.307
		c-0.347-1.544-0.961-2.329-1.902-3.157C21.841,21.259,19.116,20.43,16,20.43c-3.146,0-5.874,0.832-7.681,2.342
		C7.107,23.6,6.683,24.954,6.465,25.903z M9.028,25.029c0.912-1.188,3.222-2.458,6.972-2.458c3.596,0,5.966,1.304,6.902,2.42
		l0.462,0.551l-0.677,0.241c-0.786,0.281-3.012,0.934-6.688,0.934c-3.688,0-5.81-0.572-6.747-0.913L8.613,25.57L9.028,25.029z"/>
</g>
</svg>
