<?xml version="1.0" encoding="utf-8"?>
<!-- Generator: Adobe Illustrator 16.0.0, SVG Export Plug-In . SVG Version: 6.00 Build 0)  -->
<!DOCTYPE svg PUBLIC "-//W3C//DTD SVG 1.1//EN" "http://www.w3.org/Graphics/SVG/1.1/DTD/svg11.dtd">
<svg version="1.1" id="Layer_1" xmlns="http://www.w3.org/2000/svg" xmlns:xlink="http://www.w3.org/1999/xlink" x="0px" y="0px"
	 width="48px" height="48px" viewBox="0 0 48 48" enable-background="new 0 0 48 48" xml:space="preserve">
<g>
	<g>
		<path fill="#3498DB" d="M40.216,16.167c-2.039,0-3.694,1.659-3.694,3.694v14.106h1.563V19.861c0-1.175,0.956-2.129,2.131-2.129
			c1.172,0,2.128,0.955,2.128,2.129l-0.03,0.026l-0.005,18.188c0,2.24-2.467,4.114-5.597,4.267
			c-2.769-0.126-4.939-1.755-4.939-3.711l0.016-34.565H3.923v34.008c0,3.224,3.406,5.847,7.589,5.847h24.771
			c0.103,0,0.205-0.004,0.306-0.011l0.104-0.006l0.118,0.006c0.077,0.004,0.156,0.009,0.236,0.009l0.215-0.028v-0.018
			c3.781-0.376,6.609-2.841,6.609-5.799v-4.107h0.037V19.861C43.909,17.826,42.25,16.167,40.216,16.167z M5.488,5.629h24.735
			l-0.015,33.003c0,1.41,0.718,2.739,1.99,3.727H11.512c-3.32,0-6.024-1.923-6.024-4.283V5.629z"/>
	</g>
	<g>
		<rect x="7.037" y="19.315" fill="#3498DB" width="9.56" height="1.131"/>
	</g>
	<g>
		<rect x="7.958" y="8.961" fill="#3498DB" width="19.711" height="1.135"/>
	</g>
	<g>
		<rect x="12.001" y="12.293" fill="#3498DB" width="11.628" height="1.134"/>
	</g>
	<g>
		<rect x="7.037" y="22.143" fill="#3498DB" width="9.56" height="1.135"/>
	</g>
	<g>
		<rect x="7.037" y="24.936" fill="#3498DB" width="9.56" height="1.135"/>
	</g>
	<g>
		<rect x="7.037" y="27.772" fill="#3498DB" width="9.56" height="1.134"/>
	</g>
	<g>
		<rect x="7.037" y="30.905" fill="#3498DB" width="9.56" height="1.134"/>
	</g>
	<g>
		<rect x="18.607" y="19.484" fill="#3498DB" width="9.561" height="1.135"/>
	</g>
	<g>
		<rect x="18.607" y="22.313" fill="#3498DB" width="9.561" height="1.134"/>
	</g>
	<g>
		<rect x="18.607" y="25.105" fill="#3498DB" width="9.561" height="1.135"/>
	</g>
	<g>
		<rect x="18.607" y="27.941" fill="#3498DB" width="9.561" height="1.135"/>
	</g>
	<g>
		<rect x="18.607" y="31.074" fill="#3498DB" width="9.561" height="1.135"/>
	</g>
</g>
</svg>
