<?xml version="1.0" encoding="utf-8"?>
<!-- Generator: Adobe Illustrator 16.0.0, SVG Export Plug-In . SVG Version: 6.00 Build 0)  -->
<!DOCTYPE svg PUBLIC "-//W3C//DTD SVG 1.1//EN" "http://www.w3.org/Graphics/SVG/1.1/DTD/svg11.dtd">
<svg version="1.1" id="Layer_1" xmlns="http://www.w3.org/2000/svg" xmlns:xlink="http://www.w3.org/1999/xlink" x="0px" y="0px"
	 width="48px" height="48px" viewBox="0 0 48 48" enable-background="new 0 0 48 48" xml:space="preserve">
<g>
	<path fill="#3498DB" d="M3.333,4v41.334h41.334V4H3.333z M43.258,11.926H12.995V5.408h30.262L43.258,11.926L43.258,11.926z
		 M11.588,21.333v6.864H4.741v-6.864H11.588z M4.741,19.925v-6.591h6.846v6.591H4.741z M11.588,29.604v6.206H4.741v-6.206H11.588z
		 M12.995,29.604h30.262v6.206H12.995V29.604z M12.995,28.196v-6.865h30.262v6.865H12.995z M12.995,19.925v-6.591h30.262v6.591
		H12.995z M11.588,5.408v6.518H4.741V5.408H11.588z M4.741,37.22h6.846v6.704H4.741V37.22z M12.995,43.925V37.22h30.262v6.705
		H12.995z"/>
</g>
</svg>
