<?xml version="1.0" encoding="utf-8"?>
<!-- Generator: Adobe Illustrator 16.0.0, SVG Export Plug-In . SVG Version: 6.00 Build 0)  -->
<!DOCTYPE svg PUBLIC "-//W3C//DTD SVG 1.1//EN" "http://www.w3.org/Graphics/SVG/1.1/DTD/svg11.dtd">
<svg version="1.1" id="Layer_1" xmlns="http://www.w3.org/2000/svg" xmlns:xlink="http://www.w3.org/1999/xlink" x="0px" y="0px"
	 width="32px" height="32px" viewBox="0 0 32 32" enable-background="new 0 0 32 32" xml:space="preserve">
<g>
	<path fill="#3498DB" d="M16.938,3.531V1.997h-0.883v1.534H4.298v17.895h24.394V3.531H16.938z M27.809,20.541H5.182V4.415h22.627
		V20.541z"/>
	<polygon fill="#3498DB" points="16.784,22.371 15.9,22.371 15.9,26.359 11.561,30.336 12.158,30.988 16.353,27.145 20.845,30.998 
		21.42,30.326 16.784,26.35 	"/>
	<path fill="#3498DB" d="M9.081,12.881c0.398,0,0.749-0.202,0.956-0.51l3.663,1.432c-0.014,0.072-0.021,0.146-0.021,0.221
		c0,0.635,0.516,1.152,1.152,1.152c0.636,0,1.152-0.517,1.152-1.152c0-0.246-0.079-0.473-0.211-0.66l2.336-2.552
		c0.187,0.129,0.412,0.206,0.654,0.206c0.636,0,1.152-0.517,1.152-1.153c0-0.022-0.006-0.043-0.009-0.066l3.49-0.664
		c0.172,0.424,0.585,0.725,1.069,0.725c0.636,0,1.151-0.517,1.151-1.152c0-0.636-0.516-1.153-1.151-1.153
		c-0.635,0-1.148,0.514-1.152,1.147L19.799,9.37c-0.188-0.388-0.579-0.658-1.036-0.658c-0.637,0-1.152,0.518-1.152,1.153
		c0,0.232,0.069,0.449,0.188,0.63l-2.345,2.563c-0.181-0.117-0.394-0.187-0.624-0.187c-0.402,0-0.758,0.21-0.964,0.524l-3.658-1.431
		c0.016-0.075,0.024-0.154,0.024-0.235c0-0.636-0.518-1.153-1.152-1.153c-0.636,0-1.152,0.517-1.152,1.153
		C7.928,12.365,8.445,12.881,9.081,12.881z M24.466,7.996c0.391,0,0.71,0.319,0.71,0.711c0,0.391-0.319,0.711-0.71,0.711
		c-0.266,0-0.497-0.15-0.62-0.368l0.662-0.125c0.119-0.023,0.198-0.139,0.176-0.259c-0.023-0.12-0.137-0.198-0.259-0.176
		l-0.661,0.126C23.809,8.266,24.105,7.996,24.466,7.996z M18.763,10.576c-0.128,0-0.245-0.037-0.352-0.096l0.44-0.48l0.62-0.118
		C19.463,10.266,19.149,10.576,18.763,10.576z M18.763,9.154c0.24,0,0.452,0.121,0.579,0.303l-0.719,0.137l-0.51,0.558
		c-0.039-0.087-0.062-0.184-0.062-0.287C18.053,9.474,18.37,9.154,18.763,9.154z M14.831,13.313c0.115,0,0.221,0.029,0.318,0.079
		l-0.34,0.37l-0.514-0.201C14.425,13.411,14.615,13.313,14.831,13.313z M14.125,13.97l0.806,0.315l0.532-0.58
		c0.048,0.097,0.076,0.204,0.076,0.32c0,0.391-0.317,0.71-0.709,0.71c-0.391,0-0.709-0.319-0.709-0.71
		C14.121,14.005,14.124,13.988,14.125,13.97z M9.081,11.018c0.393,0,0.71,0.319,0.71,0.71c0,0.024-0.004,0.046-0.006,0.069
		l-0.646-0.253C9.024,11.5,8.897,11.557,8.852,11.67c-0.044,0.114,0.013,0.242,0.125,0.287l0.63,0.246
		c-0.132,0.144-0.316,0.236-0.526,0.236c-0.393,0-0.71-0.318-0.71-0.711C8.371,11.336,8.688,11.018,9.081,11.018z"/>
</g>
</svg>
