<?xml version="1.0" encoding="utf-8"?>
<!-- Generator: Adobe Illustrator 16.0.0, SVG Export Plug-In . SVG Version: 6.00 Build 0)  -->
<!DOCTYPE svg PUBLIC "-//W3C//DTD SVG 1.1//EN" "http://www.w3.org/Graphics/SVG/1.1/DTD/svg11.dtd">
<svg version="1.1" id="Layer_1" xmlns="http://www.w3.org/2000/svg" xmlns:xlink="http://www.w3.org/1999/xlink" x="0px" y="0px"
	 width="32px" height="32px" viewBox="0 0 32 32" enable-background="new 0 0 32 32" xml:space="preserve">
<g>
	<path fill="#3498DB" stroke="#3498DB" stroke-miterlimit="10" d="M8.669,19.137c0,1.216,0.174,2.255,0.522,3.12
		c0.349,0.867,0.836,1.578,1.464,2.136c0.627,0.557,1.378,0.97,2.255,1.239c0.875,0.269,1.84,0.424,2.895,0.463V15.463
		c-0.855-0.198-1.707-0.407-2.552-0.626c-0.846-0.218-1.608-0.522-2.285-0.911c-0.677-0.389-1.224-0.9-1.643-1.538
		c-0.418-0.637-0.627-1.473-0.627-2.509c0-1.035,0.214-1.906,0.642-2.612c0.428-0.707,0.981-1.274,1.658-1.703
		c0.676-0.428,1.438-0.732,2.285-0.91c0.845-0.179,1.687-0.269,2.522-0.269V3.102h0.598v1.313c0.995,0.021,1.915,0.154,2.761,0.403
		c0.848,0.25,1.584,0.627,2.211,1.135c0.628,0.508,1.124,1.165,1.492,1.97c0.37,0.808,0.583,1.788,0.644,2.942h-0.598
		c-0.04-1.055-0.229-1.946-0.568-2.672c-0.338-0.727-0.796-1.324-1.374-1.792c-0.576-0.468-1.253-0.812-2.029-1.031
		c-0.777-0.219-1.622-0.338-2.538-0.357v9.974l0.238,0.06c0.997,0.259,1.937,0.507,2.822,0.746c0.887,0.238,1.657,0.557,2.314,0.956
		c0.657,0.397,1.18,0.926,1.567,1.582c0.389,0.658,0.584,1.543,0.584,2.658c0,1.016-0.22,1.881-0.659,2.599
		c-0.438,0.716-1.015,1.309-1.73,1.775c-0.717,0.469-1.524,0.807-2.421,1.017c-0.894,0.208-1.8,0.313-2.716,0.313v2.629h-0.598
		v-2.659c-1.134-0.038-2.18-0.207-3.135-0.507c-0.955-0.3-1.776-0.756-2.463-1.374c-0.687-0.617-1.219-1.389-1.599-2.314
		c-0.378-0.926-0.557-2.035-0.537-3.329H8.669z M15.805,4.982c-0.736,0-1.493,0.08-2.269,0.239
		c-0.776,0.159-1.479,0.428-2.104,0.806c-0.628,0.378-1.141,0.88-1.538,1.508C9.495,8.163,9.295,8.944,9.295,9.879
		c0,0.896,0.18,1.623,0.539,2.18c0.357,0.558,0.84,1.01,1.448,1.359c0.607,0.349,1.303,0.627,2.09,0.836s1.598,0.402,2.434,0.582
		V4.982z M16.403,26.124c0.835,0,1.668-0.094,2.493-0.283c0.826-0.189,1.567-0.493,2.225-0.91c0.657-0.418,1.19-0.955,1.598-1.613
		c0.408-0.656,0.612-1.443,0.612-2.359c0-1.015-0.214-1.83-0.642-2.448c-0.428-0.617-0.977-1.109-1.643-1.479
		c-0.667-0.368-1.409-0.651-2.225-0.851c-0.815-0.2-1.623-0.388-2.419-0.568V26.124z"/>
</g>
</svg>
