<?xml version="1.0" encoding="utf-8"?>
<!-- Generator: Adobe Illustrator 16.0.0, SVG Export Plug-In . SVG Version: 6.00 Build 0)  -->
<!DOCTYPE svg PUBLIC "-//W3C//DTD SVG 1.1//EN" "http://www.w3.org/Graphics/SVG/1.1/DTD/svg11.dtd">
<svg version="1.1" id="Layer_1" xmlns="http://www.w3.org/2000/svg" xmlns:xlink="http://www.w3.org/1999/xlink" x="0px" y="0px"
	 width="48px" height="48px" viewBox="0 0 48 48" enable-background="new 0 0 48 48" xml:space="preserve">
<path fill="#3498DB" d="M36.543,28.501l-0.998-0.354v-1.537c0-3.489-2.838-6.327-6.327-6.327H18.782c-1.121,0-2.17-0.45-2.955-1.267
	l-1.441-1.5l1.879-0.894c2.237-1.063,3.626-3.234,3.626-5.666c0-3.489-2.838-6.327-6.327-6.327s-6.327,2.838-6.327,6.327
	c0,2.651,1.696,5.037,4.222,5.937l0.997,0.355v13.509l-0.998,0.354c-2.524,0.896-4.22,3.28-4.22,5.935
	c0,3.488,2.838,6.326,6.327,6.326s6.327-2.838,6.327-6.326c0-2.654-1.696-5.039-4.22-5.934l-0.999-0.354v-9.364l2.004,0.714
	c0.742,0.265,1.431,0.393,2.105,0.393h10.437c2.266,0,4.108,1.843,4.108,4.109v1.537l-0.998,0.354
	c-2.523,0.897-4.22,3.282-4.22,5.935c0,3.487,2.838,6.325,6.326,6.325s6.326-2.838,6.326-6.325
	C40.762,31.783,39.066,29.398,36.543,28.501z M9.456,10.956c0-2.266,1.843-4.109,4.109-4.109s4.109,1.843,4.109,4.109
	s-1.843,4.109-4.109,4.109S9.456,13.222,9.456,10.956z M17.674,37.045c0,2.265-1.843,4.107-4.109,4.107s-4.109-1.843-4.109-4.107
	c0-2.266,1.843-4.109,4.109-4.109S17.674,34.779,17.674,37.045z M34.436,38.545c-2.266,0-4.109-1.844-4.109-4.109
	s1.844-4.108,4.109-4.108s4.108,1.843,4.108,4.108S36.701,38.545,34.436,38.545z"/>
</svg>
