<?xml version="1.0" encoding="utf-8"?>
<!-- Generator: Adobe Illustrator 16.0.0, SVG Export Plug-In . SVG Version: 6.00 Build 0)  -->
<!DOCTYPE svg PUBLIC "-//W3C//DTD SVG 1.1//EN" "http://www.w3.org/Graphics/SVG/1.1/DTD/svg11.dtd">
<svg version="1.1" id="Layer_1" xmlns="http://www.w3.org/2000/svg" xmlns:xlink="http://www.w3.org/1999/xlink" x="0px" y="0px"
	 width="48px" height="48px" viewBox="0 0 48 48" enable-background="new 0 0 48 48" xml:space="preserve">
<path fill="#3498DB" d="M40.135,16.364c-0.006-0.067-0.018-0.132-0.037-0.194c-0.012-0.024-0.016-0.047-0.025-0.07
	c-0.037-0.079-0.084-0.154-0.148-0.22L26.984,2.941c-0.064-0.065-0.141-0.111-0.218-0.146c-0.024-0.012-0.048-0.018-0.073-0.026
	c-0.061-0.021-0.123-0.032-0.189-0.037c-0.019-0.002-0.031-0.009-0.05-0.009H17.44h-1.495H8.521c-0.415,0-0.748,0.334-0.748,0.747
	v41.581c0,0.412,0.334,0.746,0.748,0.746h30.873c0.414,0,0.748-0.334,0.748-0.746v-7.424v-1.494V16.41
	C40.145,16.394,40.137,16.378,40.135,16.364z M27.203,5.273l10.391,10.39H27.203V5.273z M38.648,37.627v6.676H9.268V4.216h6.678
	h1.495h8.269V16.41c0,0.413,0.334,0.748,0.748,0.748h12.191v18.975V37.627L38.648,37.627z"/>
<path fill="#86F3FF" d="M27.856,27.817v-3.502c0-2.274-1.85-4.125-4.125-4.125s-4.126,1.852-4.126,4.125v3.504h-2.733v10.694h13.719
	V27.817H27.856z M20.274,24.315c0-1.904,1.552-3.456,3.457-3.456c1.906,0,3.457,1.552,3.457,3.456v3.458h-6.914V24.315z
	 M29.921,37.846h-12.38v-9.358h12.38V37.846z"/>
<rect x="17.164" y="28.176" fill="#86F3FF" width="13.158" height="9.946"/>
</svg>
