<?xml version="1.0" encoding="utf-8"?>
<!-- Generator: Adobe Illustrator 16.0.0, SVG Export Plug-In . SVG Version: 6.00 Build 0)  -->
<!DOCTYPE svg PUBLIC "-//W3C//DTD SVG 1.1//EN" "http://www.w3.org/Graphics/SVG/1.1/DTD/svg11.dtd">
<svg version="1.1"
	 id="svg0" sodipodi:docname="tryton-star.svg" inkscape:version="0.48.2 r9819" xmlns:dc="http://purl.org/dc/elements/1.1/" xmlns:cc="http://creativecommons.org/ns#" xmlns:rdf="http://www.w3.org/1999/02/22-rdf-syntax-ns#" xmlns:svg="http://www.w3.org/2000/svg" xmlns:sodipodi="http://sodipodi.sourceforge.net/DTD/sodipodi-0.dtd" xmlns:inkscape="http://www.inkscape.org/namespaces/inkscape"
	 xmlns="http://www.w3.org/2000/svg" xmlns:xlink="http://www.w3.org/1999/xlink" x="0px" y="0px" width="48px" height="48px"
	 viewBox="0 0 48 48" enable-background="new 0 0 48 48" xml:space="preserve">
<path fill="#3498DB" d="M24.539,2.949C24.443,2.756,24.236,2.636,24,2.636s-0.441,0.12-0.537,0.313l-6.609,13.395L2.069,18.492
	c-0.228,0.031-0.413,0.189-0.484,0.407s-0.013,0.454,0.151,0.614l10.696,10.426L9.908,44.664c-0.039,0.226,0.053,0.45,0.238,0.585
	c0.103,0.076,0.227,0.115,0.354,0.115c0.097,0,0.193-0.024,0.279-0.069L24,38.345l13.222,6.95c0.198,0.104,0.45,0.086,0.632-0.046
	c0.186-0.135,0.277-0.359,0.238-0.585l-2.523-14.725l10.695-10.426c0.165-0.16,0.223-0.396,0.151-0.614s-0.257-0.376-0.483-0.407
	l-14.783-2.148L24.539,2.949z M34.504,29.301c-0.141,0.138-0.205,0.336-0.171,0.531l2.371,13.837l-12.425-6.532
	c-0.086-0.045-0.182-0.069-0.279-0.069c-0.097,0-0.193,0.024-0.279,0.069L11.297,43.67l2.371-13.838
	c0.033-0.195-0.031-0.392-0.172-0.53L3.443,19.503l13.893-2.019c0.195-0.028,0.363-0.15,0.451-0.328L24,4.567l6.212,12.589
	c0.088,0.178,0.258,0.299,0.453,0.328l13.892,2.019L34.504,29.301z"/>
<polygon fill="#3498DB" points="24,3.425 17.27,16.483 2.441,18.911 13.221,29.605 10.512,44.435 24,37.808 37.414,44.697 
	34.986,29.605 45.615,19.173 30.787,16.745 "/>
</svg>
