<?xml version="1.0" encoding="utf-8"?>
<!-- Generator: Adobe Illustrator 16.0.0, SVG Export Plug-In . SVG Version: 6.00 Build 0)  -->
<!DOCTYPE svg PUBLIC "-//W3C//DTD SVG 1.1//EN" "http://www.w3.org/Graphics/SVG/1.1/DTD/svg11.dtd">
<svg version="1.1" id="Layer_1" xmlns="http://www.w3.org/2000/svg" xmlns:xlink="http://www.w3.org/1999/xlink" x="0px" y="0px"
	 width="48px" height="48px" viewBox="0 0 48 48" enable-background="new 0 0 48 48" xml:space="preserve">
<g>
	<polygon fill="none" points="32.848,14.79 27.277,14.79 27.277,16.21 36.987,16.21 27.277,6.502 27.277,13.607 32.848,13.607 	"/>
	<path fill="none" d="M25.882,16.908V14.79H12.418v-1.182h13.463V5.513h-7.727h-1.396h-6.24v37.459h27.456v-6.238h0.001v-1.396
		V17.607H26.58C26.195,17.607,25.882,17.294,25.882,16.908z M12.418,18.036h10.503v1.182H12.418V18.036z M12.429,22.081h10.504
		v1.181H12.429V22.081z M22.912,36.59H12.44v-1.18h10.472V36.59z M22.912,32.162H12.44v-1.186h10.472V32.162z M32.869,27.691H12.44
		V26.51h20.429V27.691z"/>
	<rect x="12.418" y="13.607" fill="#86F3FF" width="13.463" height="1.182"/>
	<rect x="12.418" y="18.036" fill="#86F3FF" width="10.503" height="1.182"/>
	<rect x="12.429" y="22.081" fill="#86F3FF" width="10.504" height="1.181"/>
	<rect x="12.44" y="26.51" fill="#86F3FF" width="20.429" height="1.182"/>
	<rect x="12.44" y="30.977" fill="#86F3FF" width="10.472" height="1.186"/>
	<rect x="12.44" y="35.41" fill="#86F3FF" width="10.472" height="1.18"/>
	<path fill="#3498DB" d="M39.362,16.865c-0.005-0.063-0.017-0.124-0.035-0.182c-0.011-0.022-0.013-0.043-0.022-0.064
		c-0.033-0.074-0.078-0.144-0.14-0.207L27.074,4.322c-0.063-0.06-0.131-0.104-0.204-0.136c-0.021-0.011-0.045-0.017-0.068-0.024
		c-0.056-0.02-0.115-0.03-0.177-0.034c-0.018-0.003-0.028-0.009-0.046-0.009h-8.424h-1.396H9.822c-0.388,0-0.7,0.312-0.7,0.697
		v38.856c0,0.385,0.313,0.697,0.7,0.697h28.85c0.386,0,0.698-0.313,0.698-0.697v-6.938v-1.396v-18.43
		C39.371,16.893,39.363,16.878,39.362,16.865z M37.976,35.338v1.396h-0.001v6.238H10.519V5.513h6.24h1.396h7.727v8.094h1.396V6.502
		l9.71,9.708h-9.71V14.79h-1.396v2.119c0,0.386,0.313,0.699,0.698,0.699h11.396V35.338z"/>
	<rect x="25.882" y="13.607" fill="#3498DB" width="1.396" height="1.182"/>
</g>
</svg>
