<?xml version="1.0" encoding="utf-8"?>
<!-- Generator: Adobe Illustrator 16.0.0, SVG Export Plug-In . SVG Version: 6.00 Build 0)  -->
<!DOCTYPE svg PUBLIC "-//W3C//DTD SVG 1.1//EN" "http://www.w3.org/Graphics/SVG/1.1/DTD/svg11.dtd">
<svg version="1.1" id="Layer_1" xmlns="http://www.w3.org/2000/svg" xmlns:xlink="http://www.w3.org/1999/xlink" x="0px" y="0px"
	 width="48px" height="48px" viewBox="0 0 48 48" enable-background="new 0 0 48 48" xml:space="preserve">
<path fill="#3498DB" stroke="#3498DB" stroke-width="0.5" stroke-miterlimit="10" d="M24.471,2.416
	C12.57,2.416,2.887,12.099,2.887,24s9.683,21.583,21.584,21.583c11.902,0,21.583-9.682,21.583-21.583S36.372,2.416,24.471,2.416z
	 M24.471,3.809c6.114,0,11.598,2.735,15.303,7.042L24.445,23.128L8.423,11.764C12.116,6.933,17.935,3.809,24.471,3.809z M4.28,24
	c0-4.098,1.23-7.914,3.337-11.102l15.985,11.339l-7.992,17.9C8.907,38.851,4.28,31.956,4.28,24z M24.471,44.191
	c-2.684,0-5.245-0.532-7.589-1.486l8.156-18.267l15.613-12.504c2.519,3.368,4.011,7.545,4.011,12.066
	C44.662,35.131,35.604,44.191,24.471,44.191z"/>
</svg>
